<?xml version="1.0" standalone="no"?><!DOCTYPE svg PUBLIC "-//W3C//DTD SVG 1.1//EN" "http://www.w3.org/Graphics/SVG/1.1/DTD/svg11.dtd"><svg t="1687534313258" class="icon" viewBox="0 0 1024 1024" version="1.1" xmlns="http://www.w3.org/2000/svg" p-id="2372" xmlns:xlink="http://www.w3.org/1999/xlink" width="200" height="200"><path d="M723.790103 284.340828V46.464867a19.402805 19.402805 0 0 1 38.80561 0v237.875961a19.402805 19.402805 0 0 1-38.80561 0z m-53.673009 19.402805a19.402805 19.402805 0 0 0 19.402805-19.402805V46.464867a19.402805 19.402805 0 0 0-38.80561 0v237.875961a19.402805 19.402805 0 0 0 19.402805 19.402805z m-391.046553 181.195518a19.402805 19.402805 0 0 0-19.402805-19.402805H19.402805a19.402805 19.402805 0 0 0-13.720209 33.120588L203.632436 696.609199c3.788398 3.788398 8.75309 5.682596 13.720209 5.682596s9.931811-1.894199 13.720208-5.682596a19.397954 19.397954 0 0 0 0-27.437992l-164.826827-164.826826h193.42171a19.40523 19.40523 0 0 0 19.402805-19.40523z m115.94146 125.783532v324.618626c0 33.96461-27.634445 61.596629-61.599054 61.596629-33.962184 0-61.594204-27.632019-61.594204-61.596629V610.722683c0-27.185755 17.705059-50.318749 42.191399-58.465501v-159.064194c-73.645771-11.687765-130.719121-88.986113-130.719121-182.301477 0-101.365103 67.34471-183.829449 150.121926-183.829449 82.779641 0 150.124351 82.464346 150.124351 183.829449 0 93.315364-57.07335 170.613713-130.721546 182.301477v159.064194c24.49119 8.144327 42.19625 31.274896 42.196249 58.465501z m-61.599054-254.807333c61.380773 0 111.318742-65.057604 111.318741-145.023839s-49.937969-145.023839-111.318741-145.023839c-61.380773 0-111.316316 65.057604-111.316317 145.023839s49.935543 145.023839 111.316317 145.023839z m22.793445 254.807333c0-12.565741-10.225278-22.788594-22.793445-22.788594-12.565741 0-22.788594 10.222853-22.788594 22.788594v324.618626c0 12.568167 10.222853 22.79102 22.788594 22.791019 12.568167 0 22.793445-10.225278 22.793445-22.791019V610.722683z m666.316569-133.20753a19.402805 19.402805 0 0 0-17.925766-11.976382h-235.719824a19.402805 19.402805 0 0 0 0 38.80561h188.879028l-156.876527 156.874102a19.402805 19.402805 0 1 0 27.440416 27.437991l189.997116-189.997115a19.397954 19.397954 0 0 0 4.205557-21.144206zM768.254055 610.722683v324.618626c0 33.96461-27.634445 61.596629-61.599054 61.596629s-61.594204-27.632019-61.594204-61.596629V610.722683c0-27.185755 17.707485-50.318749 42.191399-58.465501v-158.989008c-61.972558-9.383681-109.616146-63.013034-109.616145-127.56374V46.464867a19.402805 19.402805 0 0 1 38.805609 0v219.239567c0 49.649352 40.319028 90.060544 89.934426 90.213341h0.55783c49.615397-0.152797 89.936851-40.563989 89.936851-90.213341V46.464867a19.402805 19.402805 0 0 1 38.80561 0v219.239567c0 64.550706-47.646013 118.180059-109.618571 127.56374v158.989008c24.488765 8.144327 42.19625 31.274896 42.196249 58.465501z m-38.805609 0c0-12.565741-10.225278-22.788594-22.793445-22.788594-12.568167 0-22.788594 10.222853-22.788594 22.788594v324.618626c0 12.568167 10.222853 22.79102 22.788594 22.791019 12.570592 0 22.793445-10.225278 22.793445-22.791019V610.722683z m-141.473126 263.395501l-75.974107 75.978958-56.585855-56.585855a19.402805 19.402805 0 0 0-27.440417 27.437991l70.306063 70.303638a19.402805 19.402805 0 0 0 27.440417 0l89.69189-89.696741a19.402805 19.402805 0 0 0-27.437991-27.437991z m66.277556-389.174183a19.402805 19.402805 0 0 0-19.402805-19.402804H407.483154a19.402805 19.402805 0 0 0 0 38.805609h227.369343a19.402805 19.402805 0 0 0 19.400379-19.402805z" p-id="2373" fill="#5bae6c"></path></svg>